<svg xmlns="http://www.w3.org/2000/svg" xmlns:xlink="http://www.w3.org/1999/xlink" width="378" zoomAndPan="magnify" viewBox="0 0 282.96 283.499989" height="378" preserveAspectRatio="xMidYMid meet" version="1.2"><defs><clipPath id="d9f5ebe756"><path d="M 107 38 L 171 38 L 171 81 L 107 81 Z M 107 38 "/></clipPath><clipPath id="1c87debb11"><path d="M -52.785156 76.746094 L 146.007812 -14.210938 L 236.03125 182.542969 L 37.234375 273.496094 Z M -52.785156 76.746094 "/></clipPath><clipPath id="f7973fd8ea"><path d="M -52.785156 76.746094 L 146.007812 -14.210938 L 236.03125 182.542969 L 37.234375 273.496094 Z M -52.785156 76.746094 "/></clipPath><clipPath id="5ea5050154"><path d="M 46 11 L 137 11 L 137 249 L 46 249 Z M 46 11 "/></clipPath><clipPath id="3ff738fb20"><path d="M -52.785156 76.746094 L 146.007812 -14.210938 L 236.03125 182.542969 L 37.234375 273.496094 Z M -52.785156 76.746094 "/></clipPath><clipPath id="b2837f2326"><path d="M -52.785156 76.746094 L 146.007812 -14.210938 L 236.03125 182.542969 L 37.234375 273.496094 Z M -52.785156 76.746094 "/></clipPath><clipPath id="da7b333020"><path d="M 12 179 L 73 179 L 73 222 L 12 222 Z M 12 179 "/></clipPath><clipPath id="3594bb99ba"><path d="M -52.785156 76.746094 L 146.007812 -14.210938 L 236.03125 182.542969 L 37.234375 273.496094 Z M -52.785156 76.746094 "/></clipPath><clipPath id="8e651de806"><path d="M -52.785156 76.746094 L 146.007812 -14.210938 L 236.03125 182.542969 L 37.234375 273.496094 Z M -52.785156 76.746094 "/></clipPath><clipPath id="3f0efca550"><path d="M 162 106 L 273 106 L 273 242 L 162 242 Z M 162 106 "/></clipPath><clipPath id="dcc6482932"><path d="M 144.488281 226.402344 L 166.464844 100.28125 L 290.375 121.871094 L 268.398438 247.996094 Z M 144.488281 226.402344 "/></clipPath><clipPath id="f022858e46"><path d="M 144.488281 226.402344 L 166.464844 100.28125 L 290.375 121.871094 L 268.398438 247.996094 Z M 144.488281 226.402344 "/></clipPath></defs><g id="784082934a"><g clip-rule="nonzero" clip-path="url(#d9f5ebe756)"><g clip-rule="nonzero" clip-path="url(#1c87debb11)"><g clip-rule="nonzero" clip-path="url(#f7973fd8ea)"><path style=" stroke:none;fill-rule:nonzero;fill:#ffffff;fill-opacity:1;" d="M 167.585938 38.914062 C 164.953125 37.824219 161.933594 39.078125 160.84375 41.710938 C 158.558594 47.230469 155.046875 51.851562 150.902344 55.726562 L 114.265625 42.089844 C 111.59375 41.09375 108.621094 42.453125 107.628906 45.125 C 106.632812 47.796875 107.992188 50.769531 110.664062 51.765625 L 141.023438 63.0625 C 135.660156 66.261719 130.039062 68.632812 125.011719 70.351562 C 122.3125 71.277344 120.875 74.207031 121.796875 76.902344 C 122.71875 79.601562 125.652344 81.039062 128.351562 80.117188 C 131.390625 79.078125 134.621094 77.828125 137.90625 76.324219 C 150.566406 70.53125 164.027344 61.015625 170.382812 45.65625 C 171.46875 43.023438 170.21875 40.003906 167.585938 38.914062 "/></g></g></g><g clip-rule="nonzero" clip-path="url(#5ea5050154)"><g clip-rule="nonzero" clip-path="url(#3ff738fb20)"><g clip-rule="nonzero" clip-path="url(#b2837f2326)"><path style=" stroke:none;fill-rule:nonzero;fill:#ffffff;fill-opacity:1;" d="M 118.480469 80.535156 C 118.171875 80.210938 87.558594 47.515625 97.496094 18.164062 C 98.410156 15.464844 96.960938 12.535156 94.261719 11.621094 C 91.5625 10.707031 88.632812 12.152344 87.71875 14.851562 C 75.898438 49.765625 108.847656 85.371094 110.953125 87.59375 C 112.070312 88.839844 131.730469 111.230469 125.054688 137.140625 L 61.644531 113.535156 C 64.167969 108.617188 67.425781 104.53125 71.058594 101.140625 L 107.097656 114.5625 C 108.433594 115.0625 109.84375 114.96875 111.046875 114.417969 C 112.246094 113.871094 113.238281 112.863281 113.738281 111.527344 C 114.730469 108.859375 113.371094 105.886719 110.703125 104.890625 L 81.035156 93.84375 C 85.902344 91.058594 90.890625 89.101562 95.382812 87.738281 C 98.109375 86.910156 99.648438 84.027344 98.820312 81.300781 C 97.992188 78.570312 95.109375 77.03125 92.382812 77.859375 C 85.703125 79.890625 76.121094 83.746094 67.394531 90.753906 C 66.90625 91.035156 66.460938 91.398438 66.085938 91.832031 C 59.53125 97.394531 53.582031 104.804688 49.882812 114.644531 C 49.882812 114.648438 49.878906 114.652344 49.878906 114.65625 C 49.878906 114.65625 49.878906 114.65625 49.875 114.660156 C 49.875 114.660156 49.875 114.664062 49.875 114.667969 C 44.582031 128.773438 45.375 144.332031 52.171875 159.664062 C 57.066406 170.699219 63.371094 177.945312 64.589844 179.292969 C 64.621094 179.328125 64.652344 179.363281 64.6875 179.398438 C 64.996094 179.722656 95.609375 212.421875 85.679688 241.769531 C 84.765625 244.46875 86.214844 247.398438 88.914062 248.3125 C 90.210938 248.75 91.5625 248.644531 92.714844 248.117188 C 93.964844 247.546875 94.984375 246.480469 95.457031 245.078125 C 107.273438 210.152344 74.28125 174.519531 72.214844 172.335938 C 71.070312 171.066406 51.625 148.96875 58.015625 123.199219 L 121.335938 146.769531 C 118.8125 151.585938 115.578125 155.585938 111.984375 158.917969 L 75.796875 145.453125 C 73.125 144.457031 70.152344 145.816406 69.160156 148.488281 C 68.164062 151.160156 69.523438 154.132812 72.195312 155.125 L 101.949219 166.199219 C 97.140625 168.925781 92.226562 170.847656 87.792969 172.195312 C 85.066406 173.019531 83.527344 175.90625 84.355469 178.632812 C 85.183594 181.359375 88.066406 182.898438 90.792969 182.070312 C 93.730469 181.179688 97.230469 179.933594 100.972656 178.21875 C 112.492188 172.949219 126.300781 163.257812 133.058594 145.886719 C 133.089844 145.8125 133.125 145.742188 133.152344 145.664062 C 133.167969 145.628906 133.175781 145.59375 133.1875 145.558594 C 133.222656 145.46875 133.257812 145.378906 133.292969 145.289062 C 138.585938 131.199219 137.804688 115.660156 131.03125 100.347656 C 126.15625 89.320312 119.816406 82.011719 118.589844 80.652344 C 118.554688 80.613281 118.519531 80.574219 118.480469 80.535156 "/></g></g></g><g clip-rule="nonzero" clip-path="url(#da7b333020)"><g clip-rule="nonzero" clip-path="url(#3594bb99ba)"><g clip-rule="nonzero" clip-path="url(#8e651de806)"><path style=" stroke:none;fill-rule:nonzero;fill:#ffffff;fill-opacity:1;" d="M 69.035156 210.558594 L 38.527344 199.203125 C 44.917969 194.789062 51.988281 191.699219 58.160156 189.585938 C 60.859375 188.667969 62.292969 185.726562 61.371094 183.03125 C 60.449219 180.332031 57.511719 178.894531 54.816406 179.820312 C 33.660156 187.0625 19.125 198.976562 12.796875 214.273438 C 11.707031 216.910156 12.957031 219.929688 15.589844 221.015625 C 16.96875 221.585938 18.453125 221.515625 19.710938 220.941406 C 20.855469 220.417969 21.8125 219.476562 22.332031 218.21875 C 24.109375 213.929688 26.632812 210.179688 29.617188 206.898438 L 65.4375 220.230469 C 66.773438 220.726562 68.183594 220.636719 69.382812 220.085938 C 70.585938 219.539062 71.578125 218.527344 72.074219 217.195312 C 73.066406 214.523438 71.707031 211.550781 69.035156 210.558594 "/></g></g></g><g clip-rule="nonzero" clip-path="url(#3f0efca550)"><g clip-rule="nonzero" clip-path="url(#dcc6482932)"><g clip-rule="nonzero" clip-path="url(#f022858e46)"><path style=" stroke:none;fill-rule:nonzero;fill:#ffffff;fill-opacity:1;" d="M 181.902344 116.785156 C 181.6875 116.878906 181.464844 116.949219 181.238281 117 C 181.007812 117.046875 180.773438 117.070312 180.539062 117.070312 C 180.304688 117.074219 180.074219 117.050781 179.84375 117.003906 C 179.613281 116.957031 179.390625 116.886719 179.175781 116.792969 C 178.960938 116.699219 178.757812 116.585938 178.566406 116.453125 C 178.375 116.316406 178.195312 116.164062 178.035156 115.992188 C 177.875 115.824219 177.734375 115.636719 177.613281 115.4375 C 177.488281 115.238281 177.386719 115.027344 177.308594 114.808594 C 176.699219 112.925781 176.222656 111.246094 176.847656 110.738281 C 179.976562 108.34375 183.492188 106.855469 187.386719 106.265625 C 188.160156 106.148438 189.253906 107.566406 190.445312 109.207031 C 190.578125 109.382812 190.6875 109.570312 190.777344 109.773438 C 190.863281 109.976562 190.929688 110.1875 190.96875 110.402344 C 191.007812 110.621094 191.023438 110.839844 191.015625 111.0625 C 191.003906 111.28125 190.96875 111.496094 190.910156 111.710938 C 190.847656 111.921875 190.765625 112.125 190.660156 112.320312 C 190.550781 112.511719 190.425781 112.691406 190.277344 112.855469 C 190.128906 113.019531 189.964844 113.164062 189.785156 113.292969 C 189.601562 113.417969 189.410156 113.523438 189.203125 113.601562 Z M 246.824219 234.105469 C 246.609375 234.195312 246.40625 234.308594 246.21875 234.445312 C 246.027344 234.582031 245.859375 234.742188 245.707031 234.917969 C 245.558594 235.097656 245.429688 235.292969 245.328125 235.5 C 245.222656 235.710938 245.144531 235.929688 245.09375 236.15625 C 245.042969 236.382812 245.019531 236.613281 245.023438 236.847656 C 245.03125 237.082031 245.0625 237.3125 245.121094 237.535156 C 245.183594 237.761719 245.269531 237.976562 245.382812 238.183594 C 245.492188 238.386719 245.628906 238.574219 245.785156 238.746094 C 247.003906 240.144531 248.113281 241.28125 248.875 241.132812 C 252.691406 240.316406 256.125 238.695312 259.183594 236.269531 C 259.667969 235.894531 259.183594 234.441406 258.554688 232.808594 C 258.378906 232.382812 258.125 232.011719 257.796875 231.6875 C 257.46875 231.367188 257.089844 231.117188 256.664062 230.945312 C 256.238281 230.777344 255.792969 230.691406 255.335938 230.699219 C 254.875 230.707031 254.433594 230.800781 254.011719 230.984375 Z M 240.433594 216.058594 C 235.210938 218.332031 229.984375 220.609375 224.761719 222.890625 C 215.957031 226.726562 215.957031 226.726562 220.402344 234.863281 C 223 239.621094 225.007812 240.332031 230.03125 238.15625 C 240.230469 233.738281 250.320312 229.117188 260.609375 224.890625 C 272.910156 219.835938 271.113281 219.007812 265.8125 208.878906 C 264.511719 206.402344 263.070312 206.078125 260.511719 207.265625 C 253.886719 210.308594 247.136719 213.144531 240.4375 216.058594 Z M 203.894531 110.046875 C 193.800781 114.410156 183.8125 118.964844 173.644531 123.167969 C 161.625 128.140625 163.015625 128.929688 168.558594 139.277344 C 168.636719 139.519531 168.742188 139.75 168.875 139.964844 C 169.011719 140.183594 169.167969 140.382812 169.347656 140.5625 C 169.527344 140.742188 169.726562 140.898438 169.945312 141.027344 C 170.164062 141.160156 170.394531 141.265625 170.636719 141.34375 C 170.878906 141.417969 171.128906 141.46875 171.382812 141.484375 C 171.636719 141.503906 171.886719 141.492188 172.140625 141.449219 C 172.390625 141.40625 172.632812 141.335938 172.867188 141.234375 C 173.101562 141.132812 173.320312 141.007812 173.523438 140.855469 C 180.4375 137.675781 187.46875 134.722656 194.453125 131.675781 L 209.773438 125.003906 C 218.277344 121.296875 218.277344 121.296875 213.921875 113.269531 C 211.242188 108.3125 209.371094 107.679688 203.894531 110.046875 Z M 231.050781 196.195312 C 222.730469 199.820312 214.414062 203.445312 206.101562 207.074219 C 195.703125 211.605469 195.703125 211.605469 200.941406 221.425781 C 203.9375 227.035156 205.414062 227.546875 211.457031 224.917969 C 228.765625 217.390625 246.070312 209.851562 263.375 202.300781 C 274.636719 197.382812 274.671875 197.257812 268.667969 186.667969 C 266.222656 182.355469 264.355469 181.71875 259.628906 183.757812 C 250.089844 187.875 240.566406 192.019531 231.050781 196.195312 Z M 195.53125 134.765625 C 187.210938 138.390625 178.894531 142.019531 170.585938 145.648438 C 160.410156 150.085938 160.410156 150.089844 165.535156 159.703125 C 168.707031 165.644531 169.832031 166.019531 176.339844 163.183594 C 193.648438 155.648438 210.949219 148.101562 228.238281 140.550781 C 239.164062 135.785156 239.164062 135.789062 233.648438 125.640625 C 230.953125 120.6875 229.296875 120.082031 224.101562 122.328125 C 214.5625 126.449219 205.039062 130.597656 195.53125 134.765625 Z M 202.957031 156.03125 C 202.734375 156.121094 202.519531 156.234375 202.320312 156.367188 C 202.121094 156.503906 201.933594 156.65625 201.765625 156.828125 C 201.597656 157.003906 201.449219 157.191406 201.320312 157.398438 C 201.191406 157.601562 201.085938 157.816406 201.003906 158.046875 C 200.917969 158.273438 200.859375 158.503906 200.828125 158.746094 C 200.792969 158.984375 200.785156 159.222656 200.800781 159.464844 C 200.816406 159.707031 200.859375 159.945312 200.925781 160.175781 C 200.992188 160.410156 201.082031 160.632812 201.195312 160.84375 L 218.414062 193.375 C 218.664062 193.820312 218.988281 194.203125 219.378906 194.527344 C 219.773438 194.855469 220.210938 195.097656 220.691406 195.257812 C 221.175781 195.421875 221.671875 195.492188 222.179688 195.472656 C 222.691406 195.449219 223.179688 195.339844 223.644531 195.136719 L 229.589844 192.546875 C 229.8125 192.457031 230.023438 192.347656 230.226562 192.210938 C 230.425781 192.078125 230.613281 191.921875 230.78125 191.75 C 230.949219 191.578125 231.097656 191.386719 231.226562 191.183594 C 231.355469 190.976562 231.460938 190.761719 231.542969 190.535156 C 231.628906 190.308594 231.6875 190.074219 231.71875 189.835938 C 231.753906 189.597656 231.761719 189.355469 231.746094 189.113281 C 231.730469 188.875 231.6875 188.636719 231.621094 188.402344 C 231.554688 188.171875 231.464844 187.949219 231.347656 187.734375 L 214.132812 155.203125 C 213.878906 154.757812 213.558594 154.375 213.167969 154.050781 C 212.773438 153.726562 212.335938 153.484375 211.851562 153.320312 C 211.371094 153.15625 210.875 153.085938 210.367188 153.109375 C 209.855469 153.128906 209.367188 153.242188 208.902344 153.441406 Z M 202.957031 156.03125 "/></g></g></g></g></svg>