<svg xmlns="http://www.w3.org/2000/svg" xmlns:xlink="http://www.w3.org/1999/xlink" width="378" zoomAndPan="magnify" viewBox="0 0 282.96 283.499989" height="378" preserveAspectRatio="xMidYMid meet" version="1.2"><defs><clipPath id="cfdfec3058"><path d="M 224 100 L 282.691406 100 L 282.691406 163 L 224 163 Z M 224 100 "/></clipPath><clipPath id="fceceef2b5"><path d="M 0.230469 117 L 67 117 L 67 178 L 0.230469 178 Z M 0.230469 117 "/></clipPath><clipPath id="d4e861a590"><path d="M 108 218 L 172 218 L 172 282.253906 L 108 282.253906 Z M 108 218 "/></clipPath></defs><g id="6efc1e807a"><g clip-rule="nonzero" clip-path="url(#cfdfec3058)"><path style=" stroke:none;fill-rule:nonzero;fill:#ffffff;fill-opacity:1;" d="M 263.910156 162.5 C 260.679688 162.5 257.027344 161.484375 253.3125 159.566406 C 247.027344 162.859375 241.039062 163.460938 236.667969 161.125 C 234.753906 160.105469 231.578125 157.652344 230.679688 152.203125 C 228.226562 149.988281 226.488281 146.992188 225.890625 143.699219 C 225.351562 140.886719 225.710938 137.953125 226.730469 135.316406 C 223.617188 130.527344 223.554688 124.421875 226.789062 119.273438 C 229.421875 115.019531 233.675781 112.503906 238.285156 112.207031 C 238.644531 109.929688 239.484375 107.777344 240.917969 105.980469 C 243.671875 102.386719 248.285156 100.113281 253.195312 100.050781 C 253.253906 100.050781 253.3125 100.050781 253.375 100.050781 C 258.285156 100.171875 262.894531 102.386719 265.648438 105.980469 C 267.023438 107.835938 267.921875 109.929688 268.28125 112.207031 C 272.894531 112.566406 277.085938 115.019531 279.777344 119.273438 C 283.011719 124.421875 282.953125 130.527344 279.839844 135.316406 C 280.917969 137.953125 281.214844 140.886719 280.675781 143.699219 C 280.078125 146.992188 278.402344 149.988281 275.886719 152.203125 C 274.988281 157.652344 271.875 160.105469 269.898438 161.125 C 268.164062 162.023438 266.128906 162.5 263.910156 162.5 Z M 253.3125 149.6875 C 254.152344 149.6875 254.988281 149.929688 255.769531 150.40625 C 260.4375 153.339844 264.152344 153.820312 265.648438 153.042969 C 266.664062 152.503906 266.90625 150.886719 266.964844 149.628906 C 267.023438 148.132812 267.804688 146.753906 269.0625 145.976562 C 270.4375 145.078125 271.335938 143.699219 271.636719 142.085938 C 271.933594 140.46875 271.574219 138.851562 270.617188 137.535156 C 269.242188 135.675781 269.480469 133.101562 271.15625 131.484375 C 273.671875 129.089844 273.253906 126.097656 271.996094 124.121094 C 270.796875 122.207031 268.34375 120.527344 265.050781 121.726562 C 263.433594 122.324219 261.636719 121.964844 260.378906 120.828125 C 259.121094 119.691406 258.582031 117.953125 259 116.277344 C 259.480469 114.300781 259.300781 112.683594 258.34375 111.488281 C 257.324219 110.109375 255.347656 109.210938 253.253906 109.152344 C 251.15625 109.210938 249.242188 110.109375 248.164062 111.488281 C 247.265625 112.683594 247.027344 114.300781 247.503906 116.277344 C 247.925781 117.953125 247.386719 119.691406 246.128906 120.828125 C 244.871094 121.964844 243.074219 122.324219 241.457031 121.726562 C 238.226562 120.527344 235.710938 122.207031 234.511719 124.121094 C 233.253906 126.097656 232.835938 129.089844 235.351562 131.484375 C 237.027344 133.101562 237.265625 135.675781 235.890625 137.535156 C 234.933594 138.851562 234.574219 140.46875 234.871094 142.085938 C 235.171875 143.699219 236.070312 145.078125 237.445312 145.976562 C 238.703125 146.8125 239.484375 148.132812 239.542969 149.628906 C 239.601562 150.886719 239.839844 152.503906 240.859375 153.042969 C 242.355469 153.820312 246.070312 153.339844 250.738281 150.40625 C 251.636719 149.867188 252.476562 149.6875 253.3125 149.6875 Z M 253.3125 149.6875 "/></g><path style=" stroke:none;fill-rule:nonzero;fill:#ffffff;fill-opacity:1;" d="M 253.3125 175.914062 C 250.800781 175.914062 248.703125 173.878906 248.703125 171.304688 L 248.703125 134.839844 C 248.703125 132.324219 250.738281 130.230469 253.3125 130.230469 C 255.886719 130.230469 257.925781 132.265625 257.925781 134.839844 L 257.925781 171.304688 C 257.925781 173.878906 255.828125 175.914062 253.3125 175.914062 Z M 253.3125 175.914062 "/><g clip-rule="nonzero" clip-path="url(#fceceef2b5)"><path style=" stroke:none;fill-rule:nonzero;fill:#ffffff;fill-opacity:1;" d="M 42.613281 177.289062 C 39.679688 177.289062 36.863281 176.632812 34.171875 175.316406 C 33.570312 175.015625 32.851562 175.015625 32.253906 175.316406 C 29.558594 176.632812 26.746094 177.289062 23.8125 177.289062 C 10.878906 177.289062 0.402344 163.757812 0.402344 147.054688 C 0.402344 130.828125 10.878906 117.65625 23.8125 117.65625 C 27.046875 117.65625 30.277344 118.492188 33.210938 120.109375 C 36.144531 118.492188 39.378906 117.65625 42.613281 117.65625 C 55.546875 117.65625 66.023438 130.828125 66.023438 147.054688 C 66.023438 163.757812 55.546875 177.289062 42.613281 177.289062 Z M 38.183594 167.050781 C 39.617188 167.769531 41.117188 168.070312 42.613281 168.070312 C 50.214844 168.070312 56.804688 158.25 56.804688 147.054688 C 56.804688 136.097656 50.277344 126.816406 42.613281 126.816406 C 40.277344 126.816406 38.0625 127.59375 35.964844 129.210938 C 34.351562 130.46875 32.015625 130.46875 30.398438 129.210938 C 28.300781 127.652344 26.085938 126.816406 23.75 126.816406 C 16.027344 126.816406 9.5625 136.097656 9.5625 147.054688 C 9.5625 158.25 16.207031 168.070312 23.75 168.070312 C 25.25 168.070312 26.746094 167.710938 28.183594 167.050781 C 31.414062 165.554688 35.007812 165.554688 38.183594 167.050781 Z M 38.183594 167.050781 "/></g><path style=" stroke:none;fill-rule:nonzero;fill:#ffffff;fill-opacity:1;" d="M 35.308594 128.792969 C 32.792969 128.792969 30.699219 126.757812 30.699219 124.179688 L 30.699219 103.105469 C 30.699219 100.589844 32.734375 98.496094 35.308594 98.496094 C 37.882812 98.496094 39.917969 100.53125 39.917969 103.105469 L 39.917969 124.179688 C 39.917969 126.757812 37.882812 128.792969 35.308594 128.792969 Z M 35.308594 128.792969 "/><path style=" stroke:none;fill-rule:nonzero;fill:#ffffff;fill-opacity:1;" d="M 47.820312 127.832031 C 46.5625 127.832031 45.308594 127.355469 44.410156 126.335938 C 42.671875 124.480469 42.851562 121.546875 44.707031 119.871094 C 47.222656 117.59375 48.839844 114.542969 49.257812 111.1875 C 45.066406 112.085938 41.414062 114.78125 39.378906 118.734375 C 38.242188 121.007812 35.425781 121.90625 33.210938 120.769531 C 30.9375 119.628906 30.039062 116.816406 31.175781 114.601562 C 35.066406 106.996094 42.792969 102.085938 51.355469 101.789062 L 53.03125 101.726562 C 54.46875 101.667969 55.785156 102.207031 56.863281 103.164062 C 57.878906 104.125 58.480469 105.441406 58.539062 106.878906 L 58.597656 108.554688 C 58.839844 115.441406 56.023438 122.085938 50.933594 126.757812 C 50.035156 127.414062 48.960938 127.832031 47.820312 127.832031 Z M 47.820312 127.832031 "/><path style=" stroke:none;fill-rule:nonzero;fill:#ffffff;fill-opacity:1;" d="M 36.207031 133.582031 C 34.289062 133.582031 32.492188 132.382812 31.835938 130.46875 C 31.773438 130.289062 31.296875 129.808594 30.996094 129.628906 L 31.054688 129.691406 L 35.308594 121.546875 C 35.964844 121.90625 39.320312 123.761719 40.578125 127.59375 C 41.355469 129.988281 40.097656 132.625 37.703125 133.402344 C 37.222656 133.523438 36.746094 133.582031 36.207031 133.582031 Z M 36.207031 133.582031 "/><path style=" stroke:none;fill-rule:nonzero;fill:#ffffff;fill-opacity:1;" d="M 139.789062 182.5 C 115.179688 182.5 95.183594 162.5 95.183594 137.894531 C 95.183594 113.285156 115.179688 93.285156 139.789062 93.285156 C 164.398438 93.285156 184.398438 113.285156 184.398438 137.894531 C 184.398438 162.5 164.398438 182.5 139.789062 182.5 Z M 139.789062 102.507812 C 120.269531 102.507812 104.402344 118.375 104.402344 137.894531 C 104.402344 157.414062 120.269531 173.277344 139.789062 173.277344 C 159.308594 173.277344 175.175781 157.414062 175.175781 137.894531 C 175.175781 118.375 159.308594 102.507812 139.789062 102.507812 Z M 139.789062 102.507812 "/><path style=" stroke:none;fill-rule:nonzero;fill:#ffffff;fill-opacity:1;" d="M 139.789062 107.957031 C 137.273438 107.957031 135.179688 105.917969 135.179688 103.34375 L 135.179688 97.894531 C 135.179688 95.382812 137.214844 93.285156 139.789062 93.285156 C 142.363281 93.285156 144.402344 95.320312 144.402344 97.894531 L 144.402344 103.34375 C 144.402344 105.917969 142.363281 107.957031 139.789062 107.957031 Z M 139.789062 107.957031 "/><path style=" stroke:none;fill-rule:nonzero;fill:#ffffff;fill-opacity:1;" d="M 164.21875 118.074219 C 163.023438 118.074219 161.882812 117.65625 160.984375 116.757812 C 159.191406 114.960938 159.191406 112.027344 160.984375 110.230469 L 164.816406 106.398438 C 166.613281 104.601562 169.546875 104.601562 171.34375 106.398438 C 173.140625 108.195312 173.140625 111.128906 171.34375 112.925781 L 167.511719 116.757812 C 166.554688 117.65625 165.417969 118.074219 164.21875 118.074219 Z M 164.21875 118.074219 "/><path style=" stroke:none;fill-rule:nonzero;fill:#ffffff;fill-opacity:1;" d="M 179.785156 142.503906 L 174.339844 142.503906 C 171.824219 142.503906 169.726562 140.46875 169.726562 137.894531 C 169.726562 135.316406 171.761719 133.28125 174.339844 133.28125 L 179.785156 133.28125 C 182.300781 133.28125 184.398438 135.316406 184.398438 137.894531 C 184.398438 140.46875 182.363281 142.503906 179.785156 142.503906 Z M 179.785156 142.503906 "/><path style=" stroke:none;fill-rule:nonzero;fill:#ffffff;fill-opacity:1;" d="M 168.109375 170.765625 C 166.914062 170.765625 165.777344 170.34375 164.878906 169.445312 L 161.046875 165.613281 C 159.25 163.820312 159.25 160.886719 161.046875 159.089844 C 162.84375 157.292969 165.777344 157.292969 167.574219 159.089844 L 171.40625 162.921875 C 173.199219 164.71875 173.199219 167.652344 171.40625 169.445312 C 170.445312 170.34375 169.25 170.765625 168.109375 170.765625 Z M 168.109375 170.765625 "/><path style=" stroke:none;fill-rule:nonzero;fill:#ffffff;fill-opacity:1;" d="M 139.789062 182.5 C 137.273438 182.5 135.179688 180.464844 135.179688 177.890625 L 135.179688 172.441406 C 135.179688 169.925781 137.214844 167.832031 139.789062 167.832031 C 142.363281 167.832031 144.402344 169.867188 144.402344 172.441406 L 144.402344 177.890625 C 144.402344 180.464844 142.363281 182.5 139.789062 182.5 Z M 139.789062 182.5 "/><path style=" stroke:none;fill-rule:nonzero;fill:#ffffff;fill-opacity:1;" d="M 111.527344 170.765625 C 110.332031 170.765625 109.195312 170.285156 108.296875 169.445312 C 106.5 167.652344 106.5 164.71875 108.296875 162.921875 L 112.128906 159.089844 C 113.925781 157.292969 116.859375 157.292969 118.652344 159.089844 C 120.449219 160.886719 120.449219 163.820312 118.652344 165.613281 L 114.820312 169.445312 C 113.863281 170.34375 112.726562 170.765625 111.527344 170.765625 Z M 111.527344 170.765625 "/><path style=" stroke:none;fill-rule:nonzero;fill:#ffffff;fill-opacity:1;" d="M 105.300781 142.503906 L 99.851562 142.503906 C 97.339844 142.503906 95.242188 140.46875 95.242188 137.894531 C 95.242188 135.316406 97.277344 133.28125 99.851562 133.28125 L 105.300781 133.28125 C 107.816406 133.28125 109.914062 135.316406 109.914062 137.894531 C 109.914062 140.46875 107.816406 142.503906 105.300781 142.503906 Z M 105.300781 142.503906 "/><path style=" stroke:none;fill-rule:nonzero;fill:#ffffff;fill-opacity:1;" d="M 115.359375 118.074219 C 114.164062 118.074219 113.027344 117.65625 112.128906 116.757812 L 108.296875 112.925781 C 106.5 111.128906 106.5 108.195312 108.296875 106.398438 C 110.09375 104.601562 113.027344 104.601562 114.820312 106.398438 L 118.652344 110.230469 C 120.449219 112.027344 120.449219 114.960938 118.652344 116.757812 C 117.757812 117.65625 116.558594 118.074219 115.359375 118.074219 Z M 115.359375 118.074219 "/><path style=" stroke:none;fill-rule:nonzero;fill:#ffffff;fill-opacity:1;" d="M 151.285156 142.503906 L 139.851562 142.503906 C 137.335938 142.503906 135.238281 140.46875 135.238281 137.894531 L 135.238281 119.511719 C 135.238281 116.996094 137.273438 114.902344 139.851562 114.902344 C 142.425781 114.902344 144.460938 116.9375 144.460938 119.511719 L 144.460938 133.28125 L 151.347656 133.28125 C 153.859375 133.28125 155.957031 135.316406 155.957031 137.894531 C 155.957031 140.46875 153.800781 142.503906 151.285156 142.503906 Z M 151.285156 142.503906 "/><path style=" stroke:none;fill-rule:nonzero;fill:#ffffff;fill-opacity:1;" d="M 177.152344 45.984375 L 160.207031 45.984375 C 157.691406 45.984375 155.597656 43.949219 155.597656 41.375 L 155.597656 4.609375 C 155.597656 2.09375 157.632812 0 160.207031 0 L 177.152344 0 C 179.667969 0 181.761719 2.035156 181.761719 4.609375 L 181.761719 41.375 C 181.761719 43.949219 179.667969 45.984375 177.152344 45.984375 Z M 164.757812 36.761719 L 172.542969 36.761719 L 172.542969 9.222656 L 164.757812 9.222656 Z M 164.757812 36.761719 "/><path style=" stroke:none;fill-rule:nonzero;fill:#ffffff;fill-opacity:1;" d="M 119.433594 45.984375 L 102.488281 45.984375 C 99.972656 45.984375 97.878906 43.949219 97.878906 41.375 L 97.878906 4.609375 C 97.878906 2.09375 99.914062 0 102.488281 0 L 119.433594 0 C 121.949219 0 124.042969 2.035156 124.042969 4.609375 L 124.042969 41.375 C 124.042969 43.949219 122.007812 45.984375 119.433594 45.984375 Z M 107.097656 36.761719 L 114.882812 36.761719 L 114.882812 9.222656 L 107.097656 9.222656 Z M 107.097656 36.761719 "/><path style=" stroke:none;fill-rule:nonzero;fill:#ffffff;fill-opacity:1;" d="M 160.148438 35.6875 L 119.433594 35.6875 C 116.917969 35.6875 114.820312 33.648438 114.820312 31.074219 C 114.820312 28.5 116.859375 26.464844 119.433594 26.464844 L 160.148438 26.464844 C 162.664062 26.464844 164.757812 28.5 164.757812 31.074219 C 164.757812 33.648438 162.722656 35.6875 160.148438 35.6875 Z M 160.148438 19.519531 L 119.433594 19.519531 C 116.917969 19.519531 114.820312 17.484375 114.820312 14.910156 C 114.820312 12.335938 116.859375 10.296875 119.433594 10.296875 L 160.148438 10.296875 C 162.664062 10.296875 164.757812 12.335938 164.757812 14.910156 C 164.757812 17.484375 162.722656 19.519531 160.148438 19.519531 Z M 160.148438 19.519531 "/><g clip-rule="nonzero" clip-path="url(#d4e861a590)"><path style=" stroke:none;fill-rule:nonzero;fill:#ffffff;fill-opacity:1;" d="M 139.789062 282.253906 C 138.59375 282.253906 137.453125 281.832031 136.558594 280.933594 C 122.546875 266.925781 108.117188 252.492188 108.117188 237.046875 C 108.117188 227.046875 116.257812 218.902344 126.257812 218.902344 C 132.664062 218.902344 136.796875 221.480469 139.789062 225.070312 C 142.785156 221.480469 146.914062 218.902344 153.320312 218.902344 C 163.320312 218.902344 171.464844 227.046875 171.464844 237.046875 C 171.464844 252.492188 156.972656 266.984375 143.023438 280.933594 C 142.183594 281.773438 140.988281 282.253906 139.789062 282.253906 Z M 126.257812 228.066406 C 121.347656 228.066406 117.335938 232.078125 117.335938 236.988281 C 117.335938 247.644531 128.292969 259.5 139.851562 271.117188 C 151.40625 259.5 162.363281 247.644531 162.363281 236.988281 C 162.363281 232.078125 158.351562 228.066406 153.441406 228.066406 C 149.550781 228.066406 147.273438 229.144531 143.980469 235.667969 C 143.203125 237.226562 141.585938 238.183594 139.851562 238.183594 C 138.113281 238.183594 136.496094 237.226562 135.71875 235.667969 C 132.425781 229.144531 130.148438 228.066406 126.257812 228.066406 Z M 126.257812 228.066406 "/></g><path style=" stroke:none;fill-rule:nonzero;fill:#ffffff;fill-opacity:1;" d="M 194.753906 244.171875 C 193.140625 244.171875 191.523438 243.273438 190.683594 241.777344 C 189.488281 239.5625 190.324219 236.746094 192.539062 235.550781 C 211.582031 225.25 227.089844 209.683594 237.445312 190.644531 C 238.644531 188.425781 241.457031 187.589844 243.671875 188.785156 C 245.890625 189.984375 246.726562 192.796875 245.53125 195.015625 C 234.394531 215.671875 217.566406 232.4375 196.910156 243.632812 C 196.253906 243.992188 195.472656 244.171875 194.753906 244.171875 Z M 84.882812 244.171875 C 84.164062 244.171875 83.386719 243.992188 82.730469 243.632812 C 62.070312 232.4375 45.308594 215.671875 34.109375 195.015625 C 32.914062 192.796875 33.75 189.984375 35.964844 188.785156 C 38.183594 187.589844 40.996094 188.425781 42.195312 190.644531 C 52.492188 209.683594 68.058594 225.191406 87.101562 235.550781 C 89.316406 236.746094 90.152344 239.5625 88.957031 241.777344 C 88.117188 243.332031 86.5 244.171875 84.882812 244.171875 Z M 38.121094 87.597656 C 37.402344 87.597656 36.625 87.417969 35.964844 87.058594 C 33.75 85.859375 32.914062 83.046875 34.109375 80.832031 C 45.308594 60.175781 62.070312 43.410156 82.730469 32.214844 C 84.945312 31.015625 87.757812 31.855469 88.957031 34.070312 C 90.152344 36.285156 89.316406 39.097656 87.101562 40.296875 C 68.058594 50.59375 52.550781 66.164062 42.195312 85.203125 C 41.355469 86.699219 39.796875 87.597656 38.121094 87.597656 Z M 241.457031 87.597656 C 239.839844 87.597656 238.226562 86.699219 237.386719 85.203125 C 227.089844 66.164062 211.519531 50.65625 192.480469 40.296875 C 190.265625 39.097656 189.425781 36.285156 190.625 34.070312 C 191.820312 31.855469 194.636719 31.015625 196.851562 32.214844 C 217.507812 43.410156 234.273438 60.175781 245.46875 80.832031 C 246.667969 83.046875 245.828125 85.859375 243.613281 87.058594 C 242.957031 87.417969 242.238281 87.597656 241.457031 87.597656 Z M 241.457031 87.597656 "/></g></svg>