<svg xmlns="http://www.w3.org/2000/svg" xmlns:xlink="http://www.w3.org/1999/xlink" width="378" zoomAndPan="magnify" viewBox="0 0 282.96 283.499989" height="378" preserveAspectRatio="xMidYMid meet" version="1.2"><defs><clipPath id="1de33cb429"><path d="M 240 58 L 282.691406 58 L 282.691406 74 L 240 74 Z M 240 58 "/></clipPath><clipPath id="7de21fbb07"><path d="M 240 58 L 282.691406 58 L 282.691406 102 L 240 102 Z M 240 58 "/></clipPath><clipPath id="97d9d3a8cb"><path d="M 240 87 L 282.691406 87 L 282.691406 102 L 240 102 Z M 240 87 "/></clipPath><clipPath id="e883f190e1"><path d="M 9 11.847656 L 238 11.847656 L 238 262 L 9 262 Z M 9 11.847656 "/></clipPath></defs><g id="1dc6072b97"><path style=" stroke:none;fill-rule:nonzero;fill:#ffffff;fill-opacity:1;" d="M 205.984375 40.746094 L 178.796875 40.746094 C 174.730469 40.746094 171.445312 37.460938 171.445312 33.390625 C 171.445312 29.324219 174.730469 26.039062 178.796875 26.039062 L 205.984375 26.039062 C 210.050781 26.039062 213.335938 29.324219 213.335938 33.390625 C 213.335938 37.460938 210.050781 40.746094 205.984375 40.746094 Z M 205.984375 40.746094 "/><path style=" stroke:none;fill-rule:nonzero;fill:#ffffff;fill-opacity:1;" d="M 178.796875 68.988281 C 176.957031 68.988281 175.121094 68.320312 173.710938 66.914062 C 170.777344 64.097656 170.699219 59.441406 173.515625 56.507812 L 200.703125 28.269531 C 203.519531 25.335938 208.171875 25.253906 211.105469 28.070312 C 214.039062 30.886719 214.117188 35.542969 211.300781 38.476562 L 184.117188 66.757812 C 182.667969 68.242188 180.753906 68.988281 178.796875 68.988281 Z M 178.796875 68.988281 "/><path style=" stroke:none;fill-rule:nonzero;fill:#ffffff;fill-opacity:1;" d="M 206.648438 68.988281 L 179.460938 68.988281 C 175.394531 68.988281 172.109375 65.703125 172.109375 61.632812 C 172.109375 57.566406 175.394531 54.28125 179.460938 54.28125 L 206.648438 54.28125 C 210.714844 54.28125 214 57.566406 214 61.632812 C 214 65.703125 210.714844 68.988281 206.648438 68.988281 Z M 206.648438 68.988281 "/><path style=" stroke:none;fill-rule:nonzero;fill:#ffffff;fill-opacity:1;" d="M 218.929688 122.457031 L 191.746094 122.457031 C 187.675781 122.457031 184.390625 119.171875 184.390625 115.105469 C 184.390625 111.035156 187.675781 107.75 191.746094 107.75 L 218.929688 107.75 C 222.996094 107.75 226.285156 111.035156 226.285156 115.105469 C 226.285156 119.171875 222.996094 122.457031 218.929688 122.457031 Z M 218.929688 122.457031 "/><path style=" stroke:none;fill-rule:nonzero;fill:#ffffff;fill-opacity:1;" d="M 191.746094 150.699219 C 189.90625 150.699219 188.066406 150.035156 186.660156 148.625 C 183.726562 145.808594 183.648438 141.15625 186.464844 138.222656 L 213.648438 109.980469 C 216.464844 107.046875 221.121094 106.96875 224.054688 109.785156 C 226.988281 112.601562 227.066406 117.253906 224.25 120.1875 L 197.0625 148.429688 C 195.617188 149.957031 193.699219 150.699219 191.746094 150.699219 Z M 191.746094 150.699219 "/><path style=" stroke:none;fill-rule:nonzero;fill:#ffffff;fill-opacity:1;" d="M 219.59375 150.699219 L 192.410156 150.699219 C 188.339844 150.699219 185.054688 147.414062 185.054688 143.347656 C 185.054688 139.277344 188.339844 135.992188 192.410156 135.992188 L 219.59375 135.992188 C 223.664062 135.992188 226.949219 139.277344 226.949219 143.347656 C 226.949219 147.414062 223.664062 150.699219 219.59375 150.699219 Z M 219.59375 150.699219 "/><g clip-rule="nonzero" clip-path="url(#1de33cb429)"><path style=" stroke:none;fill-rule:nonzero;fill:#ffffff;fill-opacity:1;" d="M 274.707031 73.601562 L 247.523438 73.601562 C 243.457031 73.601562 240.167969 70.316406 240.167969 66.25 C 240.167969 62.179688 243.457031 58.894531 247.523438 58.894531 L 274.707031 58.894531 C 278.777344 58.894531 282.0625 62.179688 282.0625 66.25 C 282.0625 70.316406 278.777344 73.601562 274.707031 73.601562 Z M 274.707031 73.601562 "/></g><g clip-rule="nonzero" clip-path="url(#7de21fbb07)"><path style=" stroke:none;fill-rule:nonzero;fill:#ffffff;fill-opacity:1;" d="M 247.5625 101.84375 C 245.722656 101.84375 243.886719 101.179688 242.476562 99.769531 C 239.542969 96.953125 239.464844 92.300781 242.28125 89.367188 L 269.46875 61.125 C 272.285156 58.191406 276.9375 58.113281 279.871094 60.929688 C 282.804688 63.746094 282.882812 68.398438 280.066406 71.332031 L 252.84375 99.613281 C 251.394531 101.101562 249.480469 101.84375 247.5625 101.84375 Z M 247.5625 101.84375 "/></g><g clip-rule="nonzero" clip-path="url(#97d9d3a8cb)"><path style=" stroke:none;fill-rule:nonzero;fill:#ffffff;fill-opacity:1;" d="M 275.375 101.84375 L 248.1875 101.84375 C 244.121094 101.84375 240.835938 98.558594 240.835938 94.492188 C 240.835938 90.421875 244.121094 87.136719 248.1875 87.136719 L 275.375 87.136719 C 279.441406 87.136719 282.726562 90.421875 282.726562 94.492188 C 282.726562 98.558594 279.441406 101.84375 275.375 101.84375 Z M 275.375 101.84375 "/></g><g clip-rule="nonzero" clip-path="url(#e883f190e1)"><path style=" stroke:none;fill-rule:nonzero;fill:#ffffff;fill-opacity:1;" d="M 102.328125 119.367188 C 90.589844 81.542969 97.75 42.386719 118.402344 11.996094 C 111.402344 12.894531 104.359375 14.421875 97.359375 16.570312 C 31.371094 37.03125 -5.554688 107.085938 14.902344 173.074219 C 35.359375 239.0625 105.417969 275.988281 171.40625 255.527344 C 199.566406 246.804688 222.410156 229.046875 237.785156 206.398438 C 178.5625 214.105469 120.59375 178.355469 102.328125 119.367188 Z M 102.328125 119.367188 "/></g></g></svg>