<svg xmlns="http://www.w3.org/2000/svg" xmlns:xlink="http://www.w3.org/1999/xlink" width="378" zoomAndPan="magnify" viewBox="0 0 282.96 283.499989" height="378" preserveAspectRatio="xMidYMid meet" version="1.2"><defs><clipPath id="9e5a48f158"><path d="M 0.230469 202 L 282.691406 202 L 282.691406 283 L 0.230469 283 Z M 0.230469 202 "/></clipPath></defs><g id="324d114d66"><g clip-rule="nonzero" clip-path="url(#9e5a48f158)"><path style=" stroke:none;fill-rule:evenodd;fill:#64bc6e;fill-opacity:1;" d="M 198.847656 202.816406 C 196.253906 202.496094 193.914062 204.359375 193.613281 206.949219 C 193.308594 209.535156 195.15625 211.878906 197.746094 212.183594 C 247.335938 218.027344 273.75 233.753906 273.75 242.867188 C 273.75 255.667969 223.519531 273.523438 141.707031 273.523438 C 59.894531 273.523438 9.660156 255.667969 9.660156 242.867188 C 9.660156 233.753906 36.074219 218.027344 85.667969 212.183594 C 88.25 211.878906 90.105469 209.535156 89.796875 206.949219 C 89.492188 204.359375 87.15625 202.492188 84.5625 202.816406 C 34.910156 208.664062 0.230469 225.132812 0.230469 242.867188 C 0.230469 262.789062 48.828125 282.953125 141.707031 282.953125 C 234.585938 282.953125 283.183594 262.789062 283.183594 242.867188 C 283.183594 225.132812 248.503906 208.664062 198.847656 202.816406 "/></g><path style=" stroke:none;fill-rule:evenodd;fill:#64bc6e;fill-opacity:1;" d="M 140.871094 258.230469 L 213.21875 153.738281 C 240.359375 117.5625 236.429688 58.09375 204.820312 26.488281 C 187.738281 9.410156 165.027344 0 140.871094 0 C 116.714844 0 94.003906 9.410156 76.921875 26.488281 C 45.316406 58.09375 41.390625 117.558594 68.421875 153.59375 Z M 141.707031 56.589844 C 159.910156 56.589844 174.71875 71.402344 174.71875 89.601562 C 174.71875 107.800781 159.910156 122.613281 141.707031 122.613281 C 123.503906 122.613281 108.695312 107.800781 108.695312 89.601562 C 108.695312 71.402344 123.503906 56.589844 141.707031 56.589844 Z M 141.707031 56.589844 "/></g></svg>