<svg xmlns="http://www.w3.org/2000/svg" xmlns:xlink="http://www.w3.org/1999/xlink" width="378" zoomAndPan="magnify" viewBox="0 0 282.96 283.499989" height="378" preserveAspectRatio="xMidYMid meet" version="1.2"><defs><clipPath id="110e9b55bb"><path d="M 0.230469 0 L 282.691406 0 L 282.691406 282.253906 L 0.230469 282.253906 Z M 0.230469 0 "/></clipPath></defs><g id="eeb5892d69"><g clip-rule="nonzero" clip-path="url(#110e9b55bb)"><path style=" stroke:none;fill-rule:nonzero;fill:#64bc6e;fill-opacity:1;" d="M 243.03125 82.117188 L 283.140625 42.011719 L 245.351562 37.859375 L 241.199219 0.0703125 L 201.089844 40.175781 L 203.886719 65.640625 L 197.378906 72.148438 C 176.472656 54.148438 149.429688 43.109375 119.742188 43.109375 C 53.828125 43.109375 0.203125 96.734375 0.203125 162.644531 C 0.203125 228.558594 53.828125 282.183594 119.742188 282.183594 C 185.65625 282.183594 239.277344 228.558594 239.277344 162.644531 C 239.277344 139.078125 232.328125 117.140625 220.507812 98.605469 L 199.398438 119.714844 C 206.316406 132.496094 210.253906 147.121094 210.253906 162.644531 C 210.253906 212.554688 169.652344 253.160156 119.742188 253.160156 C 69.832031 253.160156 29.226562 212.554688 29.226562 162.644531 C 29.226562 112.738281 69.832031 72.132812 119.742188 72.132812 C 141.425781 72.132812 161.246094 79.914062 176.835938 92.691406 L 161.929688 107.597656 C 150.226562 98.605469 135.609375 93.222656 119.742188 93.222656 C 81.460938 93.222656 50.3125 124.363281 50.3125 162.644531 C 50.3125 200.925781 81.460938 232.070312 119.742188 232.070312 C 158.019531 232.070312 189.160156 200.925781 189.160156 162.644531 C 189.160156 153.015625 187.179688 143.839844 183.621094 135.492188 L 159.800781 159.3125 C 159.894531 160.429688 160.136719 161.503906 160.136719 162.644531 C 160.136719 184.921875 142.015625 203.046875 119.742188 203.046875 C 97.464844 203.046875 79.335938 184.921875 79.335938 162.644531 C 79.335938 140.367188 97.464844 122.246094 119.742188 122.246094 C 127.589844 122.246094 134.863281 124.570312 141.050781 128.476562 L 125.945312 143.578125 C 123.980469 142.9375 121.921875 142.503906 119.742188 142.503906 C 108.617188 142.503906 99.59375 151.523438 99.59375 162.644531 C 99.59375 173.769531 108.617188 182.789062 119.742188 182.789062 C 130.863281 182.789062 139.882812 173.769531 139.882812 162.644531 C 139.882812 160.925781 139.601562 159.285156 139.195312 157.691406 L 217.566406 79.320312 L 243.03125 82.117188 "/></g></g></svg>