<svg xmlns="http://www.w3.org/2000/svg" xmlns:xlink="http://www.w3.org/1999/xlink" width="378" zoomAndPan="magnify" viewBox="0 0 282.96 283.499989" height="378" preserveAspectRatio="xMidYMid meet" version="1.2"><defs><clipPath id="eb79bff093"><path d="M 46.089844 125 L 237 125 L 237 283 L 46.089844 283 Z M 46.089844 125 "/></clipPath></defs><g id="4e2ace40eb"><path style=" stroke:none;fill-rule:nonzero;fill:#64bc6e;fill-opacity:1;" d="M 141.660156 115.652344 L 141.59375 115.652344 C 137.816406 115.65625 134.074219 115.285156 130.371094 114.542969 C 126.667969 113.800781 123.074219 112.703125 119.585938 111.242188 C 116.101562 109.785156 112.792969 107.996094 109.664062 105.878906 C 106.535156 103.765625 103.644531 101.359375 100.996094 98.667969 C 98.320312 95.980469 95.933594 93.0625 93.832031 89.90625 C 91.730469 86.753906 89.957031 83.425781 88.503906 79.921875 C 87.054688 76.421875 85.960938 72.8125 85.214844 69.09375 C 84.472656 65.378906 84.097656 61.625 84.089844 57.835938 C 84.011719 42.273438 90.710938 26.980469 102.46875 15.90625 C 113.53125 5.484375 127.910156 -0.0078125 141.941406 0.871094 C 155.789062 0.125 170.003906 5.652344 180.957031 16.054688 C 192.652344 27.148438 199.304688 42.429688 199.226562 57.976562 C 199.222656 61.765625 198.84375 65.519531 198.101562 69.234375 C 197.355469 72.949219 196.253906 76.554688 194.800781 80.054688 C 193.347656 83.554688 191.566406 86.875 189.460938 90.023438 C 187.351562 93.175781 184.957031 96.085938 182.277344 98.765625 C 179.621094 101.449219 176.726562 103.84375 173.59375 105.953125 C 170.460938 108.058594 167.152344 109.839844 163.664062 111.289062 C 160.179688 112.738281 156.582031 113.832031 152.878906 114.566406 C 149.175781 115.300781 145.433594 115.664062 141.660156 115.652344 Z M 141.660156 115.652344 "/><g clip-rule="nonzero" clip-path="url(#eb79bff093)"><path style=" stroke:none;fill-rule:nonzero;fill:#64bc6e;fill-opacity:1;" d="M 141.363281 282.449219 C 128.566406 282.4375 115.941406 280.964844 103.484375 278.035156 C 91.027344 275.105469 79.066406 270.792969 67.605469 265.101562 C 52.765625 257.699219 46.101562 251.730469 46.644531 246.320312 L 53.753906 175.792969 C 53.777344 164.648438 57.914062 154.082031 65.710938 145.222656 C 73.265625 136.648438 83.992188 130.261719 95.914062 127.238281 C 101.230469 125.921875 106.628906 125.277344 112.101562 125.304688 L 173.242188 125.304688 C 188.074219 126.207031 201.839844 131.859375 212 141.21875 C 222.160156 150.574219 227.839844 162.886719 227.875 175.769531 L 236.320312 245.742188 C 236.96875 251.183594 230.472656 257.179688 215.859375 264.613281 C 210.136719 267.511719 204.269531 270.066406 198.25 272.28125 C 192.234375 274.496094 186.109375 276.355469 179.875 277.859375 C 173.640625 279.359375 167.339844 280.492188 160.972656 281.261719 C 154.605469 282.027344 148.21875 282.421875 141.804688 282.445312 Z M 141.363281 282.449219 "/></g></g></svg>