<svg xmlns="http://www.w3.org/2000/svg" xmlns:xlink="http://www.w3.org/1999/xlink" width="378" zoomAndPan="magnify" viewBox="0 0 282.96 283.499989" height="378" preserveAspectRatio="xMidYMid meet" version="1.0"><defs><clipPath id="4a7b62bc97"><path d="M 25 24.570312 L 258 24.570312 L 258 258.160156 L 25 258.160156 Z M 25 24.570312 " clip-rule="nonzero"/></clipPath></defs><g clip-path="url(#4a7b62bc97)"><path fill="#64bc6e" d="M 239.808594 141.3125 C 239.8125 138.078125 239.660156 134.851562 239.347656 131.628906 C 239.035156 128.40625 238.566406 125.210938 237.941406 122.035156 C 237.320312 118.859375 236.542969 115.722656 235.609375 112.625 C 234.679688 109.523438 233.601562 106.480469 232.371094 103.484375 C 231.144531 100.492188 229.773438 97.566406 228.257812 94.707031 C 226.746094 91.847656 225.09375 89.066406 223.308594 86.367188 C 221.523438 83.667969 219.609375 81.066406 217.570312 78.554688 C 215.53125 76.042969 213.375 73.636719 211.097656 71.335938 C 209.96875 70.191406 208.8125 69.074219 207.625 67.988281 C 206.441406 66.902344 205.230469 65.847656 203.992188 64.820312 C 202.753906 63.792969 201.492188 62.800781 200.207031 61.835938 C 198.921875 60.871094 197.609375 59.941406 196.277344 59.039062 C 194.945312 58.140625 193.589844 57.277344 192.214844 56.445312 C 190.839844 55.613281 189.445312 54.8125 188.03125 54.050781 C 186.617188 53.289062 185.183594 52.558594 183.730469 51.867188 C 182.28125 51.175781 180.8125 50.519531 179.332031 49.898438 C 177.847656 49.28125 176.351562 48.699219 174.835938 48.152344 C 173.324219 47.605469 171.800781 47.097656 170.261719 46.628906 C 168.726562 46.160156 167.179688 45.726562 165.621094 45.332031 C 164.0625 44.941406 162.492188 44.585938 160.917969 44.269531 C 159.339844 43.953125 157.757812 43.675781 156.167969 43.4375 C 154.578125 43.199219 152.984375 43.003906 151.382812 42.84375 C 149.785156 42.683594 148.179688 42.566406 146.574219 42.488281 C 144.96875 42.40625 143.363281 42.367188 141.757812 42.367188 C 140.148438 42.367188 138.542969 42.40625 136.9375 42.488281 C 135.332031 42.566406 133.726562 42.683594 132.128906 42.84375 C 130.527344 43.003906 128.933594 43.199219 127.34375 43.4375 C 125.753906 43.675781 124.171875 43.953125 122.59375 44.269531 C 121.019531 44.585938 119.453125 44.941406 117.894531 45.332031 C 116.335938 45.726562 114.785156 46.160156 113.25 46.628906 C 111.710938 47.097656 110.1875 47.605469 108.675781 48.152344 C 107.164062 48.699219 105.664062 49.28125 104.183594 49.898438 C 102.699219 50.519531 101.230469 51.175781 99.78125 51.867188 C 98.328125 52.558594 96.898438 53.289062 95.480469 54.050781 C 94.066406 54.8125 92.671875 55.613281 91.296875 56.445312 C 89.921875 57.277344 88.566406 58.140625 87.234375 59.039062 C 85.902344 59.941406 84.59375 60.871094 83.304688 61.835938 C 82.019531 62.800781 80.757812 63.792969 79.519531 64.820312 C 78.28125 65.847656 77.070312 66.902344 75.886719 67.988281 C 74.703125 69.074219 73.542969 70.191406 72.414062 71.335938 C 71.277344 72.484375 70.171875 73.660156 69.089844 74.863281 C 68.011719 76.066406 66.960938 77.292969 65.941406 78.546875 C 64.925781 79.800781 63.9375 81.082031 62.980469 82.382812 C 62.023438 83.683594 61.097656 85.011719 60.207031 86.355469 C 59.3125 87.703125 58.453125 89.074219 57.628906 90.460938 C 56.800781 91.851562 56.011719 93.261719 55.253906 94.6875 C 54.496094 96.117188 53.777344 97.5625 53.089844 99.023438 C 52.402344 100.488281 51.753906 101.964844 51.136719 103.460938 C 50.523438 104.957031 49.945312 106.464844 49.40625 107.988281 C 48.863281 109.511719 48.359375 111.046875 47.894531 112.59375 C 47.429688 114.140625 47 115.699219 46.609375 117.265625 C 46.222656 118.835938 45.871094 120.414062 45.558594 121.996094 C 45.242188 123.582031 44.96875 125.175781 44.734375 126.773438 C 44.5 128.375 44.300781 129.976562 44.144531 131.585938 C 43.988281 133.195312 43.871094 134.804688 43.789062 136.417969 C 43.710938 138.035156 43.671875 139.648438 43.671875 141.265625 C 43.671875 142.878906 43.710938 144.496094 43.789062 146.109375 C 43.871094 147.722656 43.988281 149.335938 44.144531 150.945312 C 44.300781 152.550781 44.5 154.15625 44.734375 155.753906 C 44.96875 157.355469 45.242188 158.945312 45.558594 160.53125 C 45.871094 162.117188 46.222656 163.695312 46.609375 165.261719 C 47 166.832031 47.429688 168.386719 47.894531 169.9375 C 48.359375 171.484375 48.863281 173.019531 49.40625 174.542969 C 49.945312 176.0625 50.523438 177.574219 51.136719 179.066406 C 51.753906 180.5625 52.402344 182.042969 53.089844 183.503906 C 53.777344 184.96875 54.496094 186.414062 55.253906 187.839844 C 56.011719 189.269531 56.800781 190.675781 57.628906 192.066406 C 58.453125 193.457031 59.3125 194.824219 60.207031 196.171875 C 61.097656 197.519531 62.023438 198.84375 62.980469 200.148438 C 63.9375 201.449219 64.925781 202.726562 65.941406 203.980469 C 66.960938 205.234375 68.011719 206.464844 69.089844 207.667969 C 70.171875 208.871094 71.277344 210.046875 72.414062 211.195312 C 73.542969 212.339844 74.703125 213.453125 75.886719 214.539062 C 77.070312 215.625 78.28125 216.683594 79.519531 217.707031 C 80.757812 218.734375 82.019531 219.730469 83.304688 220.695312 C 84.59375 221.65625 85.902344 222.589844 87.234375 223.488281 C 88.566406 224.386719 89.921875 225.253906 91.296875 226.085938 C 92.671875 226.917969 94.066406 227.714844 95.480469 228.476562 C 96.898438 229.242188 98.328125 229.96875 99.78125 230.660156 C 101.230469 231.351562 102.699219 232.007812 104.183594 232.628906 C 105.664062 233.25 107.164062 233.832031 108.675781 234.375 C 110.1875 234.921875 111.710938 235.429688 113.25 235.898438 C 114.785156 236.371094 116.335938 236.800781 117.894531 237.195312 C 119.453125 237.589844 121.019531 237.945312 122.59375 238.261719 C 124.171875 238.574219 125.753906 238.851562 127.34375 239.089844 C 128.933594 239.328125 130.527344 239.527344 132.128906 239.683594 C 133.726562 239.84375 135.332031 239.964844 136.9375 240.042969 C 138.542969 240.121094 140.148438 240.160156 141.757812 240.160156 C 143.363281 240.160156 144.96875 240.121094 146.574219 240.042969 C 148.179688 239.960938 149.785156 239.84375 151.382812 239.683594 C 152.984375 239.527344 154.578125 239.328125 156.167969 239.089844 C 157.757812 238.851562 159.339844 238.574219 160.917969 238.261719 C 162.492188 237.945312 164.0625 237.589844 165.621094 237.195312 C 167.179688 236.800781 168.726562 236.371094 170.261719 235.898438 C 171.800781 235.429688 173.324219 234.921875 174.835938 234.375 C 176.351562 233.832031 177.847656 233.25 179.332031 232.628906 C 180.8125 232.007812 182.28125 231.351562 183.730469 230.660156 C 185.183594 229.96875 186.617188 229.242188 188.03125 228.476562 C 189.445312 227.714844 190.839844 226.917969 192.214844 226.085938 C 193.589844 225.253906 194.945312 224.386719 196.277344 223.488281 C 197.609375 222.589844 198.921875 221.65625 200.207031 220.695312 C 201.492188 219.730469 202.753906 218.734375 203.992188 217.707031 C 205.230469 216.683594 206.441406 215.625 207.625 214.539062 C 208.8125 213.453125 209.96875 212.339844 211.097656 211.195312 C 213.371094 208.898438 215.53125 206.496094 217.570312 203.988281 C 219.609375 201.480469 221.519531 198.882812 223.304688 196.1875 C 225.089844 193.492188 226.742188 190.71875 228.253906 187.863281 C 229.769531 185.007812 231.140625 182.085938 232.367188 179.09375 C 233.597656 176.105469 234.675781 173.0625 235.605469 169.96875 C 236.539062 166.875 237.316406 163.738281 237.941406 160.570312 C 238.566406 157.398438 239.03125 154.203125 239.34375 150.988281 C 239.65625 147.769531 239.8125 144.546875 239.808594 141.3125 Z M 194.484375 82.453125 L 129.148438 108.613281 C 126.902344 109.519531 124.773438 110.644531 122.753906 111.988281 C 120.738281 113.328125 118.875 114.859375 117.167969 116.578125 C 115.464844 118.300781 113.949219 120.175781 112.621094 122.203125 C 111.296875 124.230469 110.191406 126.371094 109.300781 128.625 L 83.140625 194.519531 C 82.9375 195.03125 82.839844 195.566406 82.847656 196.121094 C 82.839844 196.414062 82.867188 196.707031 82.921875 196.996094 C 82.972656 197.285156 83.054688 197.566406 83.167969 197.835938 C 83.277344 198.109375 83.410156 198.367188 83.574219 198.613281 C 83.734375 198.859375 83.917969 199.085938 84.128906 199.296875 C 84.335938 199.503906 84.558594 199.691406 84.804688 199.855469 C 85.046875 200.019531 85.308594 200.15625 85.578125 200.265625 C 85.851562 200.378906 86.128906 200.464844 86.417969 200.519531 C 86.707031 200.574219 87 200.601562 87.292969 200.601562 C 87.875 200.59375 88.441406 200.496094 88.992188 200.304688 L 154.394531 173.949219 C 156.652344 173.050781 158.796875 171.929688 160.824219 170.59375 C 162.851562 169.253906 164.722656 167.726562 166.4375 166.003906 C 168.152344 164.285156 169.675781 162.40625 171.007812 160.375 C 172.339844 158.34375 173.449219 156.195312 174.34375 153.9375 L 200.503906 88.042969 C 200.671875 87.492188 200.695312 86.9375 200.570312 86.375 C 200.566406 86.085938 200.535156 85.796875 200.476562 85.507812 C 200.417969 85.222656 200.335938 84.945312 200.222656 84.675781 C 200.109375 84.40625 199.972656 84.148438 199.8125 83.90625 C 199.648438 83.660156 199.464844 83.4375 199.257812 83.230469 C 199.054688 83.023438 198.828125 82.835938 198.585938 82.671875 C 198.34375 82.507812 198.089844 82.371094 197.820312 82.253906 C 197.550781 82.140625 197.273438 82.054688 196.988281 81.992188 C 196.703125 81.933594 196.414062 81.902344 196.121094 81.894531 C 195.542969 81.933594 194.988281 82.066406 194.453125 82.289062 Z M 141.707031 154.820312 C 140.820312 154.824219 139.9375 154.746094 139.066406 154.578125 C 138.195312 154.410156 137.347656 154.160156 136.523438 153.824219 C 135.703125 153.492188 134.917969 153.078125 134.175781 152.589844 C 133.4375 152.101562 132.75 151.546875 132.117188 150.921875 C 131.484375 150.296875 130.921875 149.617188 130.421875 148.882812 C 129.925781 148.144531 129.503906 147.367188 129.160156 146.550781 C 128.816406 145.730469 128.554688 144.886719 128.378906 144.015625 C 128.199219 143.148438 128.109375 142.269531 128.105469 141.378906 C 128.097656 140.492188 128.183594 139.613281 128.351562 138.738281 C 128.519531 137.867188 128.773438 137.019531 129.109375 136.199219 C 129.445312 135.375 129.859375 134.59375 130.351562 133.855469 C 130.839844 133.113281 131.398438 132.429688 132.023438 131.800781 C 132.648438 131.167969 133.332031 130.605469 134.070312 130.109375 C 134.804688 129.613281 135.582031 129.195312 136.402344 128.851562 C 137.222656 128.511719 138.066406 128.25 138.9375 128.074219 C 139.808594 127.898438 140.6875 127.8125 141.578125 127.808594 C 142.464844 127.804688 143.34375 127.890625 144.214844 128.0625 C 145.085938 128.234375 145.933594 128.488281 146.753906 128.828125 C 147.574219 129.164062 148.355469 129.582031 149.09375 130.074219 C 149.835938 130.566406 150.519531 131.125 151.148438 131.753906 C 151.777344 132.378906 152.335938 133.0625 152.832031 133.800781 C 153.324219 134.539062 153.742188 135.316406 154.082031 136.136719 C 154.421875 136.957031 154.679688 137.804688 154.855469 138.675781 C 155.027344 139.546875 155.113281 140.425781 155.113281 141.3125 C 155.117188 142.199219 155.035156 143.074219 154.867188 143.941406 C 154.699219 144.808594 154.449219 145.652344 154.113281 146.46875 C 153.777344 147.289062 153.367188 148.066406 152.878906 148.800781 C 152.390625 149.539062 151.835938 150.21875 151.210938 150.847656 C 150.589844 151.476562 149.914062 152.035156 149.179688 152.527344 C 148.445312 153.023438 147.671875 153.441406 146.855469 153.78125 C 146.039062 154.121094 145.199219 154.378906 144.332031 154.554688 C 143.464844 154.726562 142.589844 154.816406 141.707031 154.820312 Z M 223.6875 58.613281 C 225.027344 59.972656 226.335938 61.363281 227.609375 62.789062 C 228.878906 64.210938 230.117188 65.664062 231.320312 67.148438 C 232.523438 68.628906 233.6875 70.140625 234.816406 71.683594 C 235.945312 73.222656 237.035156 74.789062 238.085938 76.382812 C 239.140625 77.976562 240.152344 79.59375 241.125 81.234375 C 242.097656 82.878906 243.03125 84.542969 243.925781 86.230469 C 244.816406 87.917969 245.667969 89.625 246.476562 91.355469 C 247.289062 93.085938 248.054688 94.832031 248.777344 96.597656 C 249.503906 98.367188 250.183594 100.148438 250.820312 101.949219 C 251.460938 103.75 252.054688 105.5625 252.601562 107.390625 C 253.152344 109.21875 253.65625 111.058594 254.117188 112.914062 C 254.574219 114.765625 254.988281 116.628906 255.359375 118.503906 C 255.730469 120.375 256.050781 122.257812 256.328125 124.144531 C 256.605469 126.035156 256.839844 127.929688 257.023438 129.828125 C 257.210938 131.730469 257.347656 133.632812 257.441406 135.539062 C 257.535156 137.445312 257.582031 139.355469 257.582031 141.265625 C 257.582031 143.171875 257.535156 145.082031 257.441406 146.988281 C 257.347656 148.894531 257.210938 150.800781 257.023438 152.699219 C 256.839844 154.601562 256.605469 156.496094 256.328125 158.382812 C 256.050781 160.273438 255.730469 162.152344 255.359375 164.027344 C 254.988281 165.898438 254.574219 167.761719 254.117188 169.617188 C 253.65625 171.46875 253.152344 173.308594 252.601562 175.136719 C 252.054688 176.96875 251.460938 178.78125 250.820312 180.582031 C 250.183594 182.378906 249.503906 184.164062 248.777344 185.929688 C 248.054688 187.695312 247.289062 189.445312 246.476562 191.171875 C 245.667969 192.902344 244.816406 194.609375 243.925781 196.296875 C 243.03125 197.988281 242.097656 199.652344 241.125 201.292969 C 240.152344 202.9375 239.140625 204.554688 238.085938 206.148438 C 237.035156 207.738281 235.945312 209.308594 234.816406 210.847656 C 233.6875 212.386719 232.523438 213.898438 231.320312 215.382812 C 230.117188 216.863281 228.878906 218.320312 227.609375 219.742188 C 226.335938 221.164062 225.027344 222.554688 223.6875 223.914062 C 222.355469 225.269531 220.988281 226.589844 219.589844 227.875 C 218.191406 229.160156 216.761719 230.410156 215.300781 231.625 C 213.839844 232.84375 212.347656 234.019531 210.828125 235.160156 C 209.308594 236.300781 207.761719 237.40625 206.1875 238.46875 C 204.613281 239.535156 203.015625 240.558594 201.390625 241.542969 C 199.765625 242.53125 198.117188 243.476562 196.445312 244.378906 C 194.773438 245.28125 193.082031 246.144531 191.367188 246.964844 C 189.652344 247.78125 187.917969 248.558594 186.167969 249.292969 C 184.414062 250.027344 182.644531 250.71875 180.855469 251.363281 C 179.070312 252.007812 177.269531 252.609375 175.453125 253.167969 C 173.632812 253.722656 171.804688 254.234375 169.960938 254.703125 C 168.121094 255.167969 166.269531 255.585938 164.40625 255.960938 C 162.542969 256.335938 160.671875 256.664062 158.792969 256.945312 C 156.914062 257.226562 155.027344 257.460938 153.136719 257.648438 C 151.246094 257.835938 149.351562 257.980469 147.453125 258.074219 C 145.554688 258.167969 143.65625 258.214844 141.757812 258.214844 C 139.855469 258.214844 137.957031 258.167969 136.058594 258.074219 C 134.160156 257.980469 132.265625 257.835938 130.375 257.648438 C 128.484375 257.460938 126.601562 257.226562 124.722656 256.945312 C 122.839844 256.664062 120.96875 256.335938 119.109375 255.960938 C 117.246094 255.585938 115.390625 255.167969 113.550781 254.703125 C 111.707031 254.234375 109.878906 253.722656 108.0625 253.167969 C 106.246094 252.609375 104.441406 252.007812 102.65625 251.363281 C 100.867188 250.71875 99.097656 250.027344 97.347656 249.292969 C 95.59375 248.558594 93.859375 247.78125 92.144531 246.964844 C 90.429688 246.144531 88.738281 245.28125 87.066406 244.378906 C 85.394531 243.472656 83.746094 242.53125 82.121094 241.542969 C 80.496094 240.558594 78.898438 239.535156 77.324219 238.46875 C 75.75 237.40625 74.203125 236.300781 72.683594 235.160156 C 71.164062 234.019531 69.675781 232.84375 68.214844 231.625 C 66.753906 230.410156 65.320312 229.160156 63.921875 227.875 C 62.523438 226.589844 61.15625 225.269531 59.824219 223.914062 C 58.480469 222.558594 57.167969 221.171875 55.890625 219.75 C 54.613281 218.328125 53.367188 216.878906 52.164062 215.398438 C 50.957031 213.914062 49.785156 212.40625 48.652344 210.867188 C 47.519531 209.328125 46.421875 207.761719 45.367188 206.171875 C 44.308594 204.578125 43.292969 202.960938 42.316406 201.320312 C 41.335938 199.679688 40.398438 198.015625 39.503906 196.328125 C 38.605469 194.640625 37.753906 192.929688 36.9375 191.203125 C 36.125 189.472656 35.355469 187.722656 34.628906 185.957031 C 33.902344 184.191406 33.214844 182.40625 32.574219 180.605469 C 31.933594 178.808594 31.339844 176.992188 30.789062 175.164062 C 30.234375 173.332031 29.730469 171.492188 29.265625 169.636719 C 28.804688 167.78125 28.386719 165.917969 28.015625 164.042969 C 27.648438 162.167969 27.320312 160.289062 27.042969 158.398438 C 26.765625 156.507812 26.53125 154.609375 26.34375 152.707031 C 26.160156 150.808594 26.019531 148.902344 25.925781 146.992188 C 25.832031 145.085938 25.785156 143.175781 25.785156 141.265625 C 25.785156 139.355469 25.832031 137.445312 25.925781 135.535156 C 26.019531 133.628906 26.160156 131.722656 26.34375 129.820312 C 26.53125 127.917969 26.765625 126.023438 27.042969 124.132812 C 27.320312 122.242188 27.648438 120.359375 28.015625 118.484375 C 28.386719 116.609375 28.804688 114.746094 29.265625 112.890625 C 29.730469 111.039062 30.234375 109.195312 30.789062 107.367188 C 31.339844 105.539062 31.933594 103.722656 32.574219 101.921875 C 33.214844 100.121094 33.902344 98.339844 34.628906 96.570312 C 35.355469 94.804688 36.125 93.054688 36.9375 91.328125 C 37.753906 89.597656 38.605469 87.890625 39.503906 86.203125 C 40.398438 84.515625 41.335938 82.851562 42.316406 81.207031 C 43.292969 79.566406 44.308594 77.949219 45.367188 76.359375 C 46.421875 74.765625 47.519531 73.199219 48.652344 71.664062 C 49.785156 70.125 50.957031 68.613281 52.164062 67.132812 C 53.367188 65.652344 54.613281 64.199219 55.890625 62.78125 C 57.167969 61.359375 58.480469 59.96875 59.824219 58.613281 C 61.160156 57.261719 62.527344 55.945312 63.929688 54.664062 C 65.328125 53.382812 66.761719 52.132812 68.222656 50.921875 C 69.683594 49.710938 71.175781 48.535156 72.695312 47.398438 C 74.21875 46.257812 75.765625 45.160156 77.339844 44.097656 C 78.914062 43.035156 80.515625 42.015625 82.140625 41.03125 C 83.765625 40.050781 85.414062 39.105469 87.085938 38.207031 C 88.757812 37.304688 90.449219 36.445312 92.164062 35.628906 C 93.878906 34.8125 95.613281 34.039062 97.363281 33.304688 C 99.117188 32.574219 100.886719 31.886719 102.671875 31.242188 C 104.460938 30.597656 106.261719 30 108.078125 29.445312 C 109.894531 28.886719 111.722656 28.378906 113.5625 27.914062 C 115.40625 27.449219 117.257812 27.03125 119.121094 26.65625 C 120.980469 26.285156 122.851562 25.957031 124.730469 25.675781 C 126.609375 25.394531 128.492188 25.164062 130.382812 24.976562 C 132.273438 24.789062 134.164062 24.648438 136.0625 24.554688 C 137.960938 24.460938 139.855469 24.414062 141.757812 24.414062 C 143.65625 24.414062 145.554688 24.460938 147.449219 24.554688 C 149.347656 24.648438 151.242188 24.789062 153.128906 24.976562 C 155.019531 25.164062 156.902344 25.394531 158.78125 25.675781 C 160.660156 25.957031 162.53125 26.285156 164.394531 26.65625 C 166.253906 27.03125 168.105469 27.449219 169.949219 27.914062 C 171.789062 28.378906 173.617188 28.886719 175.433594 29.445312 C 177.25 30 179.050781 30.597656 180.839844 31.242188 C 182.625 31.886719 184.394531 32.574219 186.148438 33.304688 C 187.902344 34.039062 189.632812 34.8125 191.347656 35.628906 C 193.0625 36.445312 194.753906 37.304688 196.425781 38.207031 C 198.097656 39.105469 199.746094 40.050781 201.375 41.03125 C 203 42.015625 204.597656 43.035156 206.171875 44.097656 C 207.746094 45.160156 209.296875 46.257812 210.816406 47.398438 C 212.335938 48.535156 213.828125 49.710938 215.289062 50.921875 C 216.75 52.132812 218.183594 53.382812 219.582031 54.664062 C 220.984375 55.945312 222.351562 57.261719 223.6875 58.613281 Z M 223.6875 58.613281 " fill-opacity="1" fill-rule="nonzero"/></g></svg>