<svg xmlns="http://www.w3.org/2000/svg" xmlns:xlink="http://www.w3.org/1999/xlink" width="378" zoomAndPan="magnify" viewBox="0 0 282.96 283.499989" height="378" preserveAspectRatio="xMidYMid meet" version="1.0"><defs><clipPath id="bd1e701e4a"><path d="M 7.390625 145 L 85 145 L 85 199 L 7.390625 199 Z M 7.390625 145 " clip-rule="nonzero"/></clipPath><clipPath id="5626f95841"><path d="M 99 62.066406 L 183 62.066406 L 183 145 L 99 145 Z M 99 62.066406 " clip-rule="nonzero"/></clipPath><clipPath id="312c8aaeb2"><path d="M 76 151 L 206 151 L 206 220.785156 L 76 220.785156 Z M 76 151 " clip-rule="nonzero"/></clipPath></defs><g clip-path="url(#bd1e701e4a)"><path fill="#64bc6e" d="M 14.578125 198.960938 L 62.664062 198.960938 C 64.5625 198.960938 66.097656 197.4375 66.097656 195.535156 L 66.097656 190.726562 C 66.097656 176.4375 72.722656 163.691406 83.0625 155.398438 C 85.03125 153.820312 84.835938 150.6875 82.550781 149.617188 C 77.433594 147.21875 71.734375 145.878906 65.730469 145.878906 L 47.332031 145.878906 C 25.332031 145.878906 7.5 163.71875 7.5 185.71875 L 7.5 191.894531 C 7.5 195.800781 10.667969 198.960938 14.578125 198.960938 " fill-opacity="1" fill-rule="nonzero"/></g><path fill="#64bc6e" d="M 25.140625 109.417969 C 25.140625 126.757812 39.195312 140.8125 56.53125 140.8125 C 73.871094 140.8125 87.925781 126.757812 87.925781 109.417969 C 87.925781 92.082031 73.871094 78.027344 56.53125 78.027344 C 39.195312 78.027344 25.140625 92.082031 25.140625 109.417969 " fill-opacity="1" fill-rule="nonzero"/><path fill="#64bc6e" d="M 236.085938 145.878906 L 217.652344 145.878906 C 211.390625 145.878906 205.441406 147.34375 200.164062 149.941406 C 197.894531 151.054688 197.515625 154.101562 199.488281 155.707031 C 209.613281 164 216.085938 176.609375 216.085938 190.726562 L 216.085938 195.535156 C 216.085938 197.4375 217.625 198.960938 219.515625 198.960938 L 268.847656 198.960938 C 272.753906 198.960938 275.925781 195.800781 275.925781 191.894531 L 275.925781 185.71875 C 275.925781 163.71875 258.085938 145.878906 236.085938 145.878906 " fill-opacity="1" fill-rule="nonzero"/><path fill="#64bc6e" d="M 226.875 78.027344 C 209.542969 78.027344 195.484375 92.082031 195.484375 109.417969 C 195.484375 126.757812 209.542969 140.8125 226.875 140.8125 C 244.222656 140.8125 258.269531 126.757812 258.269531 109.417969 C 258.269531 92.082031 244.222656 78.027344 226.875 78.027344 " fill-opacity="1" fill-rule="nonzero"/><g clip-path="url(#5626f95841)"><path fill="#64bc6e" d="M 141.089844 144.511719 C 163.863281 144.511719 182.3125 126.058594 182.3125 103.292969 C 182.3125 80.527344 163.863281 62.070312 141.089844 62.070312 C 118.324219 62.070312 99.871094 80.527344 99.871094 103.292969 C 99.871094 126.058594 118.324219 144.511719 141.089844 144.511719 " fill-opacity="1" fill-rule="nonzero"/></g><g clip-path="url(#312c8aaeb2)"><path fill="#64bc6e" d="M 76.699219 195.394531 L 76.699219 220.539062 C 76.699219 220.734375 76.851562 220.890625 77.039062 220.890625 L 205.144531 220.890625 C 205.328125 220.890625 205.480469 220.734375 205.480469 220.539062 L 205.480469 195.394531 C 205.480469 170.980469 185.683594 151.179688 161.269531 151.179688 L 120.917969 151.179688 C 96.496094 151.179688 76.699219 170.980469 76.699219 195.394531 " fill-opacity="1" fill-rule="nonzero"/></g></svg>