<svg xmlns="http://www.w3.org/2000/svg" xmlns:xlink="http://www.w3.org/1999/xlink" width="378" zoomAndPan="magnify" viewBox="0 0 282.96 283.499989" height="378" preserveAspectRatio="xMidYMid meet" version="1.0"><defs><clipPath id="dbf40d89ab"><path d="M 41 52.390625 L 243 52.390625 L 243 230.578125 L 41 230.578125 Z M 41 52.390625 " clip-rule="nonzero"/></clipPath><clipPath id="bdd48109b9"><path d="M 36.277344 73 L 247.402344 73 L 247.402344 208 L 36.277344 208 Z M 36.277344 73 " clip-rule="nonzero"/></clipPath></defs><g clip-path="url(#dbf40d89ab)"><path fill="#64bc6e" d="M 187.046875 52.398438 C 168.265625 52.398438 151.6875 61.777344 141.707031 76.105469 C 131.726562 61.777344 115.148438 52.398438 96.359375 52.398438 C 65.859375 52.398438 41.132812 77.125 41.132812 107.625 C 41.132812 177.128906 141.699219 230.546875 141.707031 230.550781 C 141.707031 230.546875 242.28125 177.128906 242.28125 107.625 C 242.28125 77.125 217.550781 52.398438 187.046875 52.398438 " fill-opacity="1" fill-rule="nonzero"/></g><g clip-path="url(#bdd48109b9)"><path fill="#ffffff" d="M 136.867188 207.058594 C 134.945312 207.058594 133.304688 205.671875 132.988281 203.773438 L 121.496094 135.066406 L 115.734375 150.71875 C 115.164062 152.265625 113.691406 153.292969 112.046875 153.292969 L 40.203125 153.292969 C 38.03125 153.292969 36.273438 151.53125 36.273438 149.363281 C 36.273438 147.191406 38.03125 145.433594 40.203125 145.433594 L 109.304688 145.433594 L 119.238281 118.441406 C 119.851562 116.765625 121.542969 115.695312 123.289062 115.886719 C 125.066406 116.054688 126.507812 117.390625 126.800781 119.152344 L 136.65625 178.070312 L 151.800781 77.332031 C 152.089844 75.40625 153.742188 73.988281 155.6875 73.988281 C 155.707031 73.988281 155.726562 73.988281 155.746094 73.988281 C 157.71875 74.019531 159.359375 75.5 159.589844 77.457031 L 168.503906 152.886719 L 170.171875 148.074219 C 170.71875 146.492188 172.210938 145.433594 173.882812 145.433594 L 243.207031 145.433594 C 245.378906 145.433594 247.140625 147.191406 247.140625 149.363281 C 247.140625 151.53125 245.378906 153.292969 243.207031 153.292969 L 176.679688 153.292969 L 170.320312 171.625 C 169.71875 173.355469 168.015625 174.441406 166.183594 174.246094 C 164.363281 174.046875 162.917969 172.617188 162.703125 170.796875 L 155.21875 107.460938 L 140.75 203.710938 C 140.464844 205.625 138.828125 207.042969 136.898438 207.058594 C 136.886719 207.058594 136.875 207.058594 136.867188 207.058594 " fill-opacity="1" fill-rule="nonzero"/></g></svg>