<svg xmlns="http://www.w3.org/2000/svg" xmlns:xlink="http://www.w3.org/1999/xlink" width="378" zoomAndPan="magnify" viewBox="0 0 283.5 283.500005" height="378" preserveAspectRatio="xMidYMid meet" version="1.0"><defs><g/></defs><g fill="#64bc6e" fill-opacity="1"><g transform="translate(37.964421, 207.713325)"><g><path d="M 75.46875 -133.609375 C 80.207031 -133.609375 83.695312 -133.210938 85.9375 -132.421875 C 88.1875 -131.640625 89.800781 -130.335938 90.78125 -128.515625 C 92.113281 -125.710938 92.78125 -121.941406 92.78125 -117.203125 L 92.78125 -46.65625 C 92.78125 -33.90625 88.160156 -22.632812 78.921875 -12.84375 C 69.691406 -3.0625 57.90625 1.828125 43.5625 1.828125 C 35.539062 1.828125 28.429688 0.0625 22.234375 -3.46875 C 16.648438 -6.5 12.765625 -9.234375 10.578125 -11.671875 L 9.109375 -13.125 C 4.859375 -17.625 2.734375 -21.484375 2.734375 -24.703125 C 2.734375 -27.921875 4.859375 -31.71875 9.109375 -36.09375 C 13.367188 -40.46875 17.140625 -42.65625 20.421875 -42.65625 C 23.703125 -42.65625 27.347656 -40.648438 31.359375 -36.640625 C 35.367188 -32.628906 39.710938 -30.625 44.390625 -30.625 C 49.066406 -30.625 52.921875 -32.203125 55.953125 -35.359375 C 58.992188 -38.523438 60.515625 -42.71875 60.515625 -47.9375 L 60.515625 -116.109375 C 60.515625 -123.398438 61.726562 -128.082031 64.15625 -130.15625 C 66.957031 -132.457031 70.726562 -133.609375 75.46875 -133.609375 Z M 75.46875 -133.609375 "/></g></g></g><g fill="#64bc6e" fill-opacity="1"><g transform="translate(138.024925, 207.713325)"><g><path d="M 39.5625 -26.984375 L 89.140625 -26.984375 C 93.148438 -26.984375 96.066406 -26.523438 97.890625 -25.609375 C 99.710938 -24.703125 100.925781 -23.273438 101.53125 -21.328125 C 102.132812 -19.378906 102.4375 -16.796875 102.4375 -13.578125 C 102.4375 -10.359375 102.132812 -7.773438 101.53125 -5.828125 C 100.925781 -3.890625 99.894531 -2.554688 98.4375 -1.828125 C 96.125 -0.609375 92.960938 0 88.953125 0 L 23.328125 0 C 14.828125 0 9.847656 -2.304688 8.390625 -6.921875 C 7.660156 -8.867188 7.296875 -11.96875 7.296875 -16.21875 L 7.296875 -117.578125 C 7.296875 -120.367188 7.382812 -122.460938 7.5625 -123.859375 C 7.75 -125.253906 8.328125 -126.863281 9.296875 -128.6875 C 10.992188 -131.96875 15.734375 -133.609375 23.515625 -133.609375 C 32.023438 -133.609375 37.066406 -131.363281 38.640625 -126.875 C 39.253906 -124.800781 39.5625 -121.640625 39.5625 -117.390625 Z M 39.5625 -26.984375 "/></g></g></g></svg>