<svg id="visual" viewBox="0 0 1500 450" width="1500" height="450" xmlns="http://www.w3.org/2000/svg" xmlns:xlink="http://www.w3.org/1999/xlink" version="1.1"><rect x="0" y="0" width="1500" height="450" fill="#1e2a38"></rect><path d="M0 394L214 387L429 375L643 398L857 388L1071 381L1286 374L1500 398L1500 451L1286 451L1071 451L857 451L643 451L429 451L214 451L0 451Z" fill="#1e2a38"></path><path d="M0 408L214 387L429 396L643 406L857 407L1071 387L1286 399L1500 390L1500 451L1286 451L1071 451L857 451L643 451L429 451L214 451L0 451Z" fill="#1a3a4a"></path><path d="M0 396L214 394L429 414L643 398L857 414L1071 405L1286 411L1500 408L1500 451L1286 451L1071 451L857 451L643 451L429 451L214 451L0 451Z" fill="#0e4a58"></path><path d="M0 421L214 404L429 422L643 421L857 407L1071 410L1286 403L1500 422L1500 451L1286 451L1071 451L857 451L643 451L429 451L214 451L0 451Z" fill="#005b61"></path><path d="M0 422L214 428L429 427L643 413L857 422L1071 414L1286 420L1500 424L1500 451L1286 451L1071 451L857 451L643 451L429 451L214 451L0 451Z" fill="#006c63"></path><path d="M0 422L214 428L429 429L643 432L857 426L1071 433L1286 435L1500 433L1500 451L1286 451L1071 451L857 451L643 451L429 451L214 451L0 451Z" fill="#1a7b5b"></path><path d="M0 436L214 438L429 443L643 441L857 435L1071 440L1286 436L1500 442L1500 451L1286 451L1071 451L857 451L643 451L429 451L214 451L0 451Z" fill="#45894d"></path></svg>